<?xml version="1.0" encoding="UTF-8" standalone="no"?>
<!DOCTYPE svg PUBLIC "-//W3C//DTD SVG 1.1//EN"
 "http://www.w3.org/Graphics/SVG/1.1/DTD/svg11.dtd">
<!-- Generated by graphviz version 2.26.3 (20100126.1600)
 -->
<!-- Title: name Pages: 1 -->
<svg width="518pt" height="288pt"
 viewBox="0.00 0.00 518.00 288.00" xmlns="http://www.w3.org/2000/svg" xmlns:xlink="http://www.w3.org/1999/xlink">
<g id="graph1" class="graph" transform="scale(1 1) rotate(0) translate(4 284)">
<title>name</title>
<!-- employees -->
<g id="node1" class="node"><title>employees</title>
<polygon fill="Lavender" stroke="Lavender" points="191,-112 191,-135 300,-135 300,-112 191,-112"/>
<polygon fill="none" stroke="black" points="191,-112 191,-135 300,-135 300,-112 191,-112"/>
<text text-anchor="start" x="216" y="-120.7" font-family="Helvetica,sans-Serif" font-weight="bold" font-size="12.00">employees</text>
<polygon fill="White" stroke="White" points="191,-94 191,-112 254,-112 254,-94 191,-94"/>
<polygon fill="none" stroke="black" points="191,-94 191,-112 254,-112 254,-94 191,-94"/>
<text text-anchor="start" x="194" y="-100.2" font-family="Helvetica,sans-Serif" font-size="12.00">emp_no</text>
<polygon fill="White" stroke="White" points="254,-94 254,-112 300,-112 300,-94 254,-94"/>
<polygon fill="none" stroke="black" points="254,-94 254,-112 300,-112 300,-94 254,-94"/>
<text text-anchor="start" x="257" y="-100.2" font-family="Helvetica,sans-Serif" font-size="12.00">int</text>
<polygon fill="White" stroke="White" points="191,-76 191,-94 254,-94 254,-76 191,-76"/>
<polygon fill="none" stroke="black" points="191,-76 191,-94 254,-94 254,-76 191,-76"/>
<text text-anchor="start" x="194" y="-82.2" font-family="Helvetica,sans-Serif" font-size="12.00">birth_date</text>
<polygon fill="White" stroke="White" points="254,-76 254,-94 300,-94 300,-76 254,-76"/>
<polygon fill="none" stroke="black" points="254,-76 254,-94 300,-94 300,-76 254,-76"/>
<text text-anchor="start" x="257" y="-82.2" font-family="Helvetica,sans-Serif" font-size="12.00">date</text>
<polygon fill="White" stroke="White" points="191,-58 191,-76 254,-76 254,-58 191,-58"/>
<polygon fill="none" stroke="black" points="191,-58 191,-76 254,-76 254,-58 191,-58"/>
<text text-anchor="start" x="194" y="-64.2" font-family="Helvetica,sans-Serif" font-size="12.00">first_name</text>
<polygon fill="White" stroke="White" points="254,-58 254,-76 300,-76 300,-58 254,-58"/>
<polygon fill="none" stroke="black" points="254,-58 254,-76 300,-76 300,-58 254,-58"/>
<text text-anchor="start" x="257" y="-64.2" font-family="Helvetica,sans-Serif" font-size="12.00">varchar</text>
<polygon fill="White" stroke="White" points="191,-40 191,-58 254,-58 254,-40 191,-40"/>
<polygon fill="none" stroke="black" points="191,-40 191,-58 254,-58 254,-40 191,-40"/>
<text text-anchor="start" x="194" y="-46.2" font-family="Helvetica,sans-Serif" font-size="12.00">last_name</text>
<polygon fill="White" stroke="White" points="254,-40 254,-58 300,-58 300,-40 254,-40"/>
<polygon fill="none" stroke="black" points="254,-40 254,-58 300,-58 300,-40 254,-40"/>
<text text-anchor="start" x="257" y="-46.2" font-family="Helvetica,sans-Serif" font-size="12.00">varchar</text>
<polygon fill="White" stroke="White" points="191,-22 191,-40 254,-40 254,-22 191,-22"/>
<polygon fill="none" stroke="black" points="191,-22 191,-40 254,-40 254,-22 191,-22"/>
<text text-anchor="start" x="194" y="-28.2" font-family="Helvetica,sans-Serif" font-size="12.00">gender</text>
<polygon fill="White" stroke="White" points="254,-22 254,-40 300,-40 300,-22 254,-22"/>
<polygon fill="none" stroke="black" points="254,-22 254,-40 300,-40 300,-22 254,-22"/>
<text text-anchor="start" x="257" y="-28.2" font-family="Helvetica,sans-Serif" font-size="12.00">enum</text>
<polygon fill="White" stroke="White" points="191,-4 191,-22 254,-22 254,-4 191,-4"/>
<polygon fill="none" stroke="black" points="191,-4 191,-22 254,-22 254,-4 191,-4"/>
<text text-anchor="start" x="194" y="-10.2" font-family="Helvetica,sans-Serif" font-size="12.00">hire_date</text>
<polygon fill="White" stroke="White" points="254,-4 254,-22 300,-22 300,-4 254,-4"/>
<polygon fill="none" stroke="black" points="254,-4 254,-22 300,-22 300,-4 254,-4"/>
<text text-anchor="start" x="257" y="-10.2" font-family="Helvetica,sans-Serif" font-size="12.00">date</text>
</g>
<!-- dept_emp -->
<g id="node2" class="node"><title>dept_emp</title>
<polygon fill="Lavender" stroke="Lavender" points="272,-252 272,-275 365,-275 365,-252 272,-252"/>
<polygon fill="none" stroke="black" points="272,-252 272,-275 365,-275 365,-252 272,-252"/>
<text text-anchor="start" x="291.5" y="-260.7" font-family="Helvetica,sans-Serif" font-weight="bold" font-size="12.00">dept_emp</text>
<polygon fill="White" stroke="White" points="272,-234 272,-252 333,-252 333,-234 272,-234"/>
<polygon fill="none" stroke="black" points="272,-234 272,-252 333,-252 333,-234 272,-234"/>
<text text-anchor="start" x="275" y="-240.2" font-family="Helvetica,sans-Serif" font-size="12.00">emp_no</text>
<polygon fill="White" stroke="White" points="333,-234 333,-252 365,-252 365,-234 333,-234"/>
<polygon fill="none" stroke="black" points="333,-234 333,-252 365,-252 365,-234 333,-234"/>
<text text-anchor="start" x="336" y="-240.2" font-family="Helvetica,sans-Serif" font-size="12.00">int</text>
<polygon fill="White" stroke="White" points="272,-216 272,-234 333,-234 333,-216 272,-216"/>
<polygon fill="none" stroke="black" points="272,-216 272,-234 333,-234 333,-216 272,-216"/>
<text text-anchor="start" x="275" y="-222.2" font-family="Helvetica,sans-Serif" font-size="12.00">dept_no</text>
<polygon fill="White" stroke="White" points="333,-216 333,-234 365,-234 365,-216 333,-216"/>
<polygon fill="none" stroke="black" points="333,-216 333,-234 365,-234 365,-216 333,-216"/>
<text text-anchor="start" x="336" y="-222.2" font-family="Helvetica,sans-Serif" font-size="12.00">char</text>
<polygon fill="White" stroke="White" points="272,-198 272,-216 333,-216 333,-198 272,-198"/>
<polygon fill="none" stroke="black" points="272,-198 272,-216 333,-216 333,-198 272,-198"/>
<text text-anchor="start" x="275" y="-204.2" font-family="Helvetica,sans-Serif" font-size="12.00">from_date</text>
<polygon fill="White" stroke="White" points="333,-198 333,-216 365,-216 365,-198 333,-198"/>
<polygon fill="none" stroke="black" points="333,-198 333,-216 365,-216 365,-198 333,-198"/>
<text text-anchor="start" x="336" y="-204.2" font-family="Helvetica,sans-Serif" font-size="12.00">date</text>
<polygon fill="White" stroke="White" points="272,-180 272,-198 333,-198 333,-180 272,-180"/>
<polygon fill="none" stroke="black" points="272,-180 272,-198 333,-198 333,-180 272,-180"/>
<text text-anchor="start" x="275" y="-186.2" font-family="Helvetica,sans-Serif" font-size="12.00">to_date</text>
<polygon fill="White" stroke="White" points="333,-180 333,-198 365,-198 365,-180 333,-180"/>
<polygon fill="none" stroke="black" points="333,-180 333,-198 365,-198 365,-180 333,-180"/>
<text text-anchor="start" x="336" y="-186.2" font-family="Helvetica,sans-Serif" font-size="12.00">date</text>
</g>
<!-- dept_emp&#45;&gt;employees -->
<g id="edge2" class="edge"><title>dept_emp&#45;&gt;employees</title>
<path fill="none" stroke="black" d="M294.097,-176.265C290.043,-167.49 285.752,-158.204 281.462,-148.919"/>
<polygon fill="black" stroke="black" points="284.553,-147.263 277.182,-139.653 278.199,-150.199 284.553,-147.263"/>
</g>
<!-- departments -->
<g id="node4" class="node"><title>departments</title>
<polygon fill="Lavender" stroke="Lavender" points="363,-76 363,-99 476,-99 476,-76 363,-76"/>
<polygon fill="none" stroke="black" points="363,-76 363,-99 476,-99 476,-76 363,-76"/>
<text text-anchor="start" x="386" y="-84.7" font-family="Helvetica,sans-Serif" font-weight="bold" font-size="12.00">departments</text>
<polygon fill="White" stroke="White" points="363,-58 363,-76 430,-76 430,-58 363,-58"/>
<polygon fill="none" stroke="black" points="363,-58 363,-76 430,-76 430,-58 363,-58"/>
<text text-anchor="start" x="366" y="-64.2" font-family="Helvetica,sans-Serif" font-size="12.00">dept_no</text>
<polygon fill="White" stroke="White" points="430,-58 430,-76 476,-76 476,-58 430,-58"/>
<polygon fill="none" stroke="black" points="430,-58 430,-76 476,-76 476,-58 430,-58"/>
<text text-anchor="start" x="433" y="-64.2" font-family="Helvetica,sans-Serif" font-size="12.00">char</text>
<polygon fill="White" stroke="White" points="363,-40 363,-58 430,-58 430,-40 363,-40"/>
<polygon fill="none" stroke="black" points="363,-40 363,-58 430,-58 430,-40 363,-40"/>
<text text-anchor="start" x="366" y="-46.2" font-family="Helvetica,sans-Serif" font-size="12.00">dept_name</text>
<polygon fill="White" stroke="White" points="430,-40 430,-58 476,-58 476,-40 430,-40"/>
<polygon fill="none" stroke="black" points="430,-40 430,-58 476,-58 476,-40 430,-40"/>
<text text-anchor="start" x="433" y="-46.2" font-family="Helvetica,sans-Serif" font-size="12.00">varchar</text>
</g>
<!-- dept_emp&#45;&gt;departments -->
<g id="edge4" class="edge"><title>dept_emp&#45;&gt;departments</title>
<path fill="none" stroke="black" d="M351.071,-176.265C364.302,-155.568 379.351,-132.025 391.916,-112.369"/>
<polygon fill="black" stroke="black" points="394.88,-114.23 397.317,-103.919 388.982,-110.46 394.88,-114.23"/>
</g>
<!-- dept_manager -->
<g id="node6" class="node"><title>dept_manager</title>
<polygon fill="Lavender" stroke="Lavender" points="398,-252 398,-275 503,-275 503,-252 398,-252"/>
<polygon fill="none" stroke="black" points="398,-252 398,-275 503,-275 503,-252 398,-252"/>
<text text-anchor="start" x="411.5" y="-260.7" font-family="Helvetica,sans-Serif" font-weight="bold" font-size="12.00">dept_manager</text>
<polygon fill="White" stroke="White" points="398,-234 398,-252 459,-252 459,-234 398,-234"/>
<polygon fill="none" stroke="black" points="398,-234 398,-252 459,-252 459,-234 398,-234"/>
<text text-anchor="start" x="401" y="-240.2" font-family="Helvetica,sans-Serif" font-size="12.00">dept_no</text>
<polygon fill="White" stroke="White" points="459,-234 459,-252 503,-252 503,-234 459,-234"/>
<polygon fill="none" stroke="black" points="459,-234 459,-252 503,-252 503,-234 459,-234"/>
<text text-anchor="start" x="462" y="-240.2" font-family="Helvetica,sans-Serif" font-size="12.00">char</text>
<polygon fill="White" stroke="White" points="398,-216 398,-234 459,-234 459,-216 398,-216"/>
<polygon fill="none" stroke="black" points="398,-216 398,-234 459,-234 459,-216 398,-216"/>
<text text-anchor="start" x="401" y="-222.2" font-family="Helvetica,sans-Serif" font-size="12.00">emp_no</text>
<polygon fill="White" stroke="White" points="459,-216 459,-234 503,-234 503,-216 459,-216"/>
<polygon fill="none" stroke="black" points="459,-216 459,-234 503,-234 503,-216 459,-216"/>
<text text-anchor="start" x="462" y="-222.2" font-family="Helvetica,sans-Serif" font-size="12.00">int</text>
<polygon fill="White" stroke="White" points="398,-198 398,-216 459,-216 459,-198 398,-198"/>
<polygon fill="none" stroke="black" points="398,-198 398,-216 459,-216 459,-198 398,-198"/>
<text text-anchor="start" x="401" y="-204.2" font-family="Helvetica,sans-Serif" font-size="12.00">from_date</text>
<polygon fill="White" stroke="White" points="459,-198 459,-216 503,-216 503,-198 459,-198"/>
<polygon fill="none" stroke="black" points="459,-198 459,-216 503,-216 503,-198 459,-198"/>
<text text-anchor="start" x="462" y="-204.2" font-family="Helvetica,sans-Serif" font-size="12.00">date</text>
<polygon fill="White" stroke="White" points="398,-180 398,-198 459,-198 459,-180 398,-180"/>
<polygon fill="none" stroke="black" points="398,-180 398,-198 459,-198 459,-180 398,-180"/>
<text text-anchor="start" x="401" y="-186.2" font-family="Helvetica,sans-Serif" font-size="12.00">to_date</text>
<polygon fill="White" stroke="White" points="459,-180 459,-198 503,-198 503,-180 459,-180"/>
<polygon fill="none" stroke="black" points="459,-180 459,-198 503,-198 503,-180 459,-180"/>
<text text-anchor="start" x="462" y="-186.2" font-family="Helvetica,sans-Serif" font-size="12.00">date</text>
</g>
<!-- dept_manager&#45;&gt;employees -->
<g id="edge8" class="edge"><title>dept_manager&#45;&gt;employees</title>
<path fill="none" stroke="black" d="M389.878,-181.662C366.527,-163.664 339.613,-142.921 315.368,-124.235"/>
<polygon fill="black" stroke="black" points="317.314,-121.316 307.257,-117.983 313.041,-126.86 317.314,-121.316"/>
</g>
<!-- dept_manager&#45;&gt;departments -->
<g id="edge6" class="edge"><title>dept_manager&#45;&gt;departments</title>
<path fill="none" stroke="black" d="M439.849,-176.265C435.898,-156.125 431.418,-133.29 427.626,-113.964"/>
<polygon fill="black" stroke="black" points="431.015,-113.058 425.655,-103.919 424.146,-114.406 431.015,-113.058"/>
</g>
<!-- salaries -->
<g id="node9" class="node"><title>salaries</title>
<polygon fill="Lavender" stroke="Lavender" points="8,-252 8,-275 98,-275 98,-252 8,-252"/>
<polygon fill="none" stroke="black" points="8,-252 8,-275 98,-275 98,-252 8,-252"/>
<text text-anchor="start" x="31.5" y="-260.7" font-family="Helvetica,sans-Serif" font-weight="bold" font-size="12.00">salaries</text>
<polygon fill="White" stroke="White" points="8,-234 8,-252 69,-252 69,-234 8,-234"/>
<polygon fill="none" stroke="black" points="8,-234 8,-252 69,-252 69,-234 8,-234"/>
<text text-anchor="start" x="11" y="-240.2" font-family="Helvetica,sans-Serif" font-size="12.00">emp_no</text>
<polygon fill="White" stroke="White" points="69,-234 69,-252 98,-252 98,-234 69,-234"/>
<polygon fill="none" stroke="black" points="69,-234 69,-252 98,-252 98,-234 69,-234"/>
<text text-anchor="start" x="72" y="-240.2" font-family="Helvetica,sans-Serif" font-size="12.00">int</text>
<polygon fill="White" stroke="White" points="8,-216 8,-234 69,-234 69,-216 8,-216"/>
<polygon fill="none" stroke="black" points="8,-216 8,-234 69,-234 69,-216 8,-216"/>
<text text-anchor="start" x="11" y="-222.2" font-family="Helvetica,sans-Serif" font-size="12.00">salary</text>
<polygon fill="White" stroke="White" points="69,-216 69,-234 98,-234 98,-216 69,-216"/>
<polygon fill="none" stroke="black" points="69,-216 69,-234 98,-234 98,-216 69,-216"/>
<text text-anchor="start" x="72" y="-222.2" font-family="Helvetica,sans-Serif" font-size="12.00">int</text>
<polygon fill="White" stroke="White" points="8,-198 8,-216 69,-216 69,-198 8,-198"/>
<polygon fill="none" stroke="black" points="8,-198 8,-216 69,-216 69,-198 8,-198"/>
<text text-anchor="start" x="11" y="-204.2" font-family="Helvetica,sans-Serif" font-size="12.00">from_date</text>
<polygon fill="White" stroke="White" points="69,-198 69,-216 98,-216 98,-198 69,-198"/>
<polygon fill="none" stroke="black" points="69,-198 69,-216 98,-216 98,-198 69,-198"/>
<text text-anchor="start" x="72" y="-204.2" font-family="Helvetica,sans-Serif" font-size="12.00">date</text>
<polygon fill="White" stroke="White" points="8,-180 8,-198 69,-198 69,-180 8,-180"/>
<polygon fill="none" stroke="black" points="8,-180 8,-198 69,-198 69,-180 8,-180"/>
<text text-anchor="start" x="11" y="-186.2" font-family="Helvetica,sans-Serif" font-size="12.00">to_date</text>
<polygon fill="White" stroke="White" points="69,-180 69,-198 98,-198 98,-180 69,-180"/>
<polygon fill="none" stroke="black" points="69,-180 69,-198 98,-198 98,-180 69,-180"/>
<text text-anchor="start" x="72" y="-186.2" font-family="Helvetica,sans-Serif" font-size="12.00">date</text>
</g>
<!-- salaries&#45;&gt;employees -->
<g id="edge10" class="edge"><title>salaries&#45;&gt;employees</title>
<path fill="none" stroke="black" d="M106.117,-183.45C111.48,-178.952 115,-176 115,-176 115,-176 144.151,-152.23 174.845,-127.203"/>
<polygon fill="black" stroke="black" points="177.127,-129.859 182.665,-120.827 172.703,-124.434 177.127,-129.859"/>
</g>
<!-- titles -->
<g id="node11" class="node"><title>titles</title>
<polygon fill="Lavender" stroke="Lavender" points="132,-252 132,-275 239,-275 239,-252 132,-252"/>
<polygon fill="none" stroke="black" points="132,-252 132,-275 239,-275 239,-252 132,-252"/>
<text text-anchor="start" x="172" y="-260.7" font-family="Helvetica,sans-Serif" font-weight="bold" font-size="12.00">titles</text>
<polygon fill="White" stroke="White" points="132,-234 132,-252 193,-252 193,-234 132,-234"/>
<polygon fill="none" stroke="black" points="132,-234 132,-252 193,-252 193,-234 132,-234"/>
<text text-anchor="start" x="135" y="-240.2" font-family="Helvetica,sans-Serif" font-size="12.00">emp_no</text>
<polygon fill="White" stroke="White" points="193,-234 193,-252 239,-252 239,-234 193,-234"/>
<polygon fill="none" stroke="black" points="193,-234 193,-252 239,-252 239,-234 193,-234"/>
<text text-anchor="start" x="196" y="-240.2" font-family="Helvetica,sans-Serif" font-size="12.00">int</text>
<polygon fill="White" stroke="White" points="132,-216 132,-234 193,-234 193,-216 132,-216"/>
<polygon fill="none" stroke="black" points="132,-216 132,-234 193,-234 193,-216 132,-216"/>
<text text-anchor="start" x="135" y="-222.2" font-family="Helvetica,sans-Serif" font-size="12.00">title</text>
<polygon fill="White" stroke="White" points="193,-216 193,-234 239,-234 239,-216 193,-216"/>
<polygon fill="none" stroke="black" points="193,-216 193,-234 239,-234 239,-216 193,-216"/>
<text text-anchor="start" x="196" y="-222.2" font-family="Helvetica,sans-Serif" font-size="12.00">varchar</text>
<polygon fill="White" stroke="White" points="132,-198 132,-216 193,-216 193,-198 132,-198"/>
<polygon fill="none" stroke="black" points="132,-198 132,-216 193,-216 193,-198 132,-198"/>
<text text-anchor="start" x="135" y="-204.2" font-family="Helvetica,sans-Serif" font-size="12.00">from_date</text>
<polygon fill="White" stroke="White" points="193,-198 193,-216 239,-216 239,-198 193,-198"/>
<polygon fill="none" stroke="black" points="193,-198 193,-216 239,-216 239,-198 193,-198"/>
<text text-anchor="start" x="196" y="-204.2" font-family="Helvetica,sans-Serif" font-size="12.00">date</text>
<polygon fill="White" stroke="White" points="132,-180 132,-198 193,-198 193,-180 132,-180"/>
<polygon fill="none" stroke="black" points="132,-180 132,-198 193,-198 193,-180 132,-180"/>
<text text-anchor="start" x="135" y="-186.2" font-family="Helvetica,sans-Serif" font-size="12.00">to_date</text>
<polygon fill="White" stroke="White" points="193,-180 193,-198 239,-198 239,-180 193,-180"/>
<polygon fill="none" stroke="black" points="193,-180 193,-198 239,-198 239,-180 193,-180"/>
<text text-anchor="start" x="196" y="-186.2" font-family="Helvetica,sans-Serif" font-size="12.00">date</text>
</g>
<!-- titles&#45;&gt;employees -->
<g id="edge12" class="edge"><title>titles&#45;&gt;employees</title>
<path fill="none" stroke="black" d="M204.646,-176.265C207.944,-167.581 211.432,-158.397 214.921,-149.209"/>
<polygon fill="black" stroke="black" points="218.271,-150.244 218.549,-139.653 211.727,-147.759 218.271,-150.244"/>
</g>
</g>
</svg>
